<svg version="1.1" xmlns="http://www.w3.org/2000/svg" viewBox="0 0 669.857142857143 318.85714285714255" width="669.857142857143" height="318.85714285714255">
  <!-- svg-source:excalidraw -->
  
  <defs>
    <style class="style-fonts">
      @font-face {
        font-family: "Virgil";
        src: url("https://excalidraw.com/Virgil.woff2");
      }
      @font-face {
        font-family: "Cascadia";
        src: url("https://excalidraw.com/Cascadia.woff2");
      }
      @font-face {
        font-family: "Assistant";
        src: url("https://excalidraw.com/Assistant-Regular.woff2");
      }
    </style>
    
  </defs>
  <rect x="0" y="0" width="669.857142857143" height="318.85714285714255" fill="#ffffff"></rect><g stroke-linecap="round" transform="translate(10.000000000000227 21.428571428571217) rotate(0 126.35714285714289 52.6428571428569)"><path d="M26.32 0 C72.93 1.45, 121.67 3.26, 226.39 0 M26.32 0 C100.47 1.13, 176.5 1.63, 226.39 0 M226.39 0 C243.86 1.26, 251.7 7.53, 252.71 26.32 M226.39 0 C244.53 0.49, 251.17 8.21, 252.71 26.32 M252.71 26.32 C252.67 47.82, 251.94 67.97, 252.71 78.96 M252.71 26.32 C252.17 43.33, 253.24 61.11, 252.71 78.96 M252.71 78.96 C252.18 97.6, 244.13 106.26, 226.39 105.29 M252.71 78.96 C252.96 97.77, 244.15 105.39, 226.39 105.29 M226.39 105.29 C147.63 104.16, 68.65 103.36, 26.32 105.29 M226.39 105.29 C162.18 105.49, 97.76 105.18, 26.32 105.29 M26.32 105.29 C7.44 105.07, 0.7 95.14, 0 78.96 M26.32 105.29 C7.07 104.59, 1.94 98.55, 0 78.96 M0 78.96 C-0.06 63.03, -0.73 46.4, 0 26.32 M0 78.96 C-0.42 61.5, 0.29 45.07, 0 26.32 M0 26.32 C-0.38 8.5, 10.44 -0.52, 26.32 0 M0 26.32 C2.06 9.17, 9.74 -1.49, 26.32 0" stroke="#f08c00" stroke-width="1" fill="none"></path></g><g transform="translate(43.33214133126421 51.5714285714281) rotate(0 93.0250015258789 22.5)"><text x="93.0250015258789" y="31.536" font-family="Virgil, Segoe UI Emoji" font-size="36px" fill="#f08c00" text-anchor="middle" style="white-space: pre;" direction="ltr" dominant-baseline="alphabetic">Rust Code</text></g><g stroke-linecap="round"><g transform="translate(266.357142857143 70.84689145824927) rotate(0 72.85714285714289 -0.5848976092769149)"><path d="M0 0 C24.29 -0.19, 121.43 -0.97, 145.71 -1.17 M0 0 C24.29 -0.19, 121.43 -0.97, 145.71 -1.17" stroke="#f08c00" stroke-width="1" fill="none"></path></g><g transform="translate(266.357142857143 70.84689145824927) rotate(0 72.85714285714289 -0.5848976092769149)"><path d="M122.29 7.57 C128.07 5.41, 133.84 3.26, 145.71 -1.17 M122.29 7.57 C131.07 4.29, 139.84 1.02, 145.71 -1.17" stroke="#f08c00" stroke-width="1" fill="none"></path></g><g transform="translate(266.357142857143 70.84689145824927) rotate(0 72.85714285714289 -0.5848976092769149)"><path d="M122.15 -9.53 C127.96 -7.47, 133.77 -5.41, 145.71 -1.17 M122.15 -9.53 C130.98 -6.4, 139.81 -3.27, 145.71 -1.17" stroke="#f08c00" stroke-width="1" fill="none"></path></g></g><mask></mask><g stroke-linecap="round" transform="translate(422.857142857143 10) rotate(0 108.5000000000001 57.642857142857125)"><path d="M28.82 0 C89.24 0.63, 150.31 0.22, 188.18 0 M28.82 0 C66.03 0.29, 103.31 -0.47, 188.18 0 M188.18 0 C209.07 0.81, 215.43 10.36, 217 28.82 M188.18 0 C207.41 0.12, 216.31 11.6, 217 28.82 M217 28.82 C216.48 52.02, 217.42 74.91, 217 86.46 M217 28.82 C217.38 41.25, 217.78 52.73, 217 86.46 M217 86.46 C215.96 106.78, 207.96 115.31, 188.18 115.29 M217 86.46 C216.56 107.34, 206.18 115.61, 188.18 115.29 M188.18 115.29 C135.56 116.37, 82.55 116.49, 28.82 115.29 M188.18 115.29 C156.12 114.86, 122.59 113.61, 28.82 115.29 M28.82 115.29 C8.91 114.47, 0.52 105.17, 0 86.46 M28.82 115.29 C10.24 115.19, -1.68 104.56, 0 86.46 M0 86.46 C1.39 69.5, 0.71 50.8, 0 28.82 M0 86.46 C0.44 67.82, -0.28 48.51, 0 28.82 M0 28.82 C0.7 11.49, 9.29 0.99, 28.82 0 M0 28.82 C2.08 9.86, 10.57 1.63, 28.82 0" stroke="#f08c00" stroke-width="1" fill="none"></path></g><g transform="translate(442.6488069806783 22.642857142857125) rotate(0 88.70833587646484 45)"><text x="88.70833587646484" y="31.536" font-family="Virgil, Segoe UI Emoji" font-size="36px" fill="#f08c00" text-anchor="middle" style="white-space: pre;" direction="ltr" dominant-baseline="alphabetic">Wasm </text><text x="88.70833587646484" y="76.536" font-family="Virgil, Segoe UI Emoji" font-size="36px" fill="#f08c00" text-anchor="middle" style="white-space: pre;" direction="ltr" dominant-baseline="alphabetic">101010011...</text></g><g stroke-linecap="round" transform="translate(10 203.57142857142878) rotate(0 126.35714285714289 52.64285714285689)"><path d="M26.32 0 C85.91 -1.12, 147.18 0.16, 226.39 0 M26.32 0 C105.47 0.79, 185.85 1.88, 226.39 0 M226.39 0 C244.51 -0.27, 253.24 7.64, 252.71 26.32 M226.39 0 C244.94 -0.5, 252.81 7.75, 252.71 26.32 M252.71 26.32 C251.36 38.07, 252.87 49.71, 252.71 78.96 M252.71 26.32 C252.5 38.47, 252.81 49.52, 252.71 78.96 M252.71 78.96 C252.22 97.27, 242.18 105.41, 226.39 105.29 M252.71 78.96 C252.33 98.35, 243.72 107.57, 226.39 105.29 M226.39 105.29 C170.79 106.23, 113.19 106.42, 26.32 105.29 M226.39 105.29 C156.17 104.23, 83.99 105.23, 26.32 105.29 M26.32 105.29 C10.55 104.53, -0.56 94.91, 0 78.96 M26.32 105.29 C10.05 103.99, -0.04 95.79, 0 78.96 M0 78.96 C0.86 61.5, -2.06 40.87, 0 26.32 M0 78.96 C0.88 59.31, 0.35 38.49, 0 26.32 M0 26.32 C0.77 10.05, 6.79 -0.17, 26.32 0 M0 26.32 C-0.61 8.44, 7.74 -0.11, 26.32 0" stroke="#1971c2" stroke-width="1" fill="none"></path></g><g transform="translate(51.60714285714289 233.71428571428567) rotate(0 84.75 22.5)"><text x="84.75" y="31.536" font-family="Virgil, Segoe UI Emoji" font-size="36px" fill="#1971c2" text-anchor="middle" style="white-space: pre;" direction="ltr" dominant-baseline="alphabetic">C++ Code</text></g><g stroke-linecap="round" transform="translate(408.57142857142856 191.42857142857156) rotate(0 125.64285714285722 56.928571428571395)"><path d="M28.46 0 C68.48 -0.61, 109.47 0.15, 222.82 0 M28.46 0 C83.7 -0.02, 140.42 -0.89, 222.82 0 M222.82 0 C240.18 -0.01, 252.37 7.88, 251.29 28.46 M222.82 0 C241.14 -0.1, 253.02 11.51, 251.29 28.46 M251.29 28.46 C252.59 42.57, 250.25 52.71, 251.29 85.39 M251.29 28.46 C250.54 46.36, 251.59 62.11, 251.29 85.39 M251.29 85.39 C251.2 105.89, 243.74 113.08, 222.82 113.86 M251.29 85.39 C249.5 105, 239.57 112.98, 222.82 113.86 M222.82 113.86 C171.61 112.58, 119.46 111.75, 28.46 113.86 M222.82 113.86 C173.55 113.32, 124.28 112.81, 28.46 113.86 M28.46 113.86 C8.49 115.36, -0.65 105.07, 0 85.39 M28.46 113.86 C10.66 115.83, 0.92 105.72, 0 85.39 M0 85.39 C-0.5 68.54, 0.21 49.01, 0 28.46 M0 85.39 C0.52 72.54, -0.02 59.68, 0 28.46 M0 28.46 C-0.67 9.71, 9.98 0.19, 28.46 0 M0 28.46 C1.96 9.44, 8.98 1.65, 28.46 0" stroke="#1971c2" stroke-width="1" fill="none"></path></g><g transform="translate(445.50594983782094 203.35714285714295) rotate(0 88.70833587646484 45)"><text x="88.70833587646484" y="31.536" font-family="Virgil, Segoe UI Emoji" font-size="36px" fill="#1971c2" text-anchor="middle" style="white-space: pre;" direction="ltr" dominant-baseline="alphabetic">Wasm </text><text x="88.70833587646484" y="76.536" font-family="Virgil, Segoe UI Emoji" font-size="36px" fill="#1971c2" text-anchor="middle" style="white-space: pre;" direction="ltr" dominant-baseline="alphabetic">101010011...</text></g><g stroke-linecap="round"><g transform="translate(272.07142857142856 246.21428571428578) rotate(0 62.85714285714283 0)"><path d="M0 0 C20.95 0, 104.76 0, 125.71 0 M0 0 C20.95 0, 104.76 0, 125.71 0" stroke="#1971c2" stroke-width="1" fill="none"></path></g><g transform="translate(272.07142857142856 246.21428571428578) rotate(0 62.85714285714283 0)"><path d="M102.22 8.55 C110.09 5.69, 117.96 2.82, 125.71 0 M102.22 8.55 C111.23 5.27, 120.24 1.99, 125.71 0" stroke="#1971c2" stroke-width="1" fill="none"></path></g><g transform="translate(272.07142857142856 246.21428571428578) rotate(0 62.85714285714283 0)"><path d="M102.22 -8.55 C110.09 -5.69, 117.96 -2.82, 125.71 0 M102.22 -8.55 C111.23 -5.27, 120.24 -1.99, 125.71 0" stroke="#1971c2" stroke-width="1" fill="none"></path></g></g><mask></mask></svg>