<svg version="1.1" xmlns="http://www.w3.org/2000/svg" viewBox="0 0 834.5714285714287 507" width="834.5714285714287" height="507">
  <!-- svg-source:excalidraw -->
  
  <defs>
    <style class="style-fonts">
      @font-face {
        font-family: "Virgil";
        src: url("https://excalidraw.com/Virgil.woff2");
      }
      @font-face {
        font-family: "Cascadia";
        src: url("https://excalidraw.com/Cascadia.woff2");
      }
      @font-face {
        font-family: "Assistant";
        src: url("https://excalidraw.com/Assistant-Regular.woff2");
      }
    </style>
    
  </defs>
  <rect x="0" y="0" width="834.5714285714287" height="507" fill="#ffffff"></rect><g stroke-linecap="round" transform="translate(10 10) rotate(0 407.28571428571433 243.5)"><path d="M32 0 C281.57 2.17, 531.65 1.98, 782.57 0 M32 0 C225.1 0.21, 418.65 0.03, 782.57 0 M782.57 0 C802.02 0.29, 816.05 9.96, 814.57 32 M782.57 0 C804.32 -2.24, 813.12 10.35, 814.57 32 M814.57 32 C814.86 142.6, 815.21 250.45, 814.57 455 M814.57 32 C815.26 126.66, 815.45 221.22, 814.57 455 M814.57 455 C816.38 477.74, 802.91 486.85, 782.57 487 M814.57 455 C815.12 475.66, 801.89 486.02, 782.57 487 M782.57 487 C630.96 487.76, 478.65 488.52, 32 487 M782.57 487 C496.9 489.3, 211.33 489.69, 32 487 M32 487 C10.48 487.82, 0.46 475.37, 0 455 M32 487 C8.74 488, -0.17 477.36, 0 455 M0 455 C-0.02 321.93, -0.52 190.1, 0 32 M0 455 C1.88 325.24, 2.4 196.18, 0 32 M0 32 C-0.43 9.48, 12.51 1.01, 32 0 M0 32 C0.69 8.75, 9.55 0.58, 32 0" stroke="#be4bdb" stroke-width="1" fill="none"></path></g><g transform="translate(39.85714285714289 28.000000000000114) rotate(0 163.02499389648438 22.5)"><text x="0" y="31.536" font-family="Virgil, Segoe UI Emoji" font-size="36px" fill="#be4bdb" text-anchor="start" style="white-space: pre;" direction="ltr" dominant-baseline="alphabetic">WasmEdge Runtime</text></g><g stroke-linecap="round" transform="translate(63.125832358611945 97.62245572266386) rotate(0 126.35714285714289 77.64285714285711)"><path d="M32 0 C104.53 -2.22, 178.54 -2.64, 220.71 0 M32 0 C82.1 1.55, 134.83 1.05, 220.71 0 M220.71 0 C242.41 -1.94, 251.45 10.39, 252.71 32 M220.71 0 C241.11 0.77, 252.98 9.66, 252.71 32 M252.71 32 C251.09 67.84, 251.34 103.18, 252.71 123.29 M252.71 32 C254.18 62.12, 252.77 90.75, 252.71 123.29 M252.71 123.29 C253.19 144.04, 240.3 154.44, 220.71 155.29 M252.71 123.29 C250.47 142.56, 242.82 155.84, 220.71 155.29 M220.71 155.29 C171.49 157.2, 120.56 156.97, 32 155.29 M220.71 155.29 C163.89 157.56, 107.48 156.67, 32 155.29 M32 155.29 C8.99 156.15, -0.15 145.51, 0 123.29 M32 155.29 C10.98 156.07, 1.21 146.23, 0 123.29 M0 123.29 C-0.1 97.5, -0.1 74.66, 0 32 M0 123.29 C-0.74 103.18, 0.39 84.77, 0 32 M0 32 C0.6 9, 9.7 0.5, 32 0 M0 32 C0.34 9.68, 11.67 0.37, 32 0" stroke="#f08c00" stroke-width="1" fill="none"></path></g><g transform="translate(100.77463933928999 130.26531286552097) rotate(0 88.70833587646484 45)"><text x="88.70833587646484" y="31.536" font-family="Virgil, Segoe UI Emoji" font-size="36px" fill="#f08c00" text-anchor="middle" style="white-space: pre;" direction="ltr" dominant-baseline="alphabetic">Wasm </text><text x="88.70833587646484" y="76.536" font-family="Virgil, Segoe UI Emoji" font-size="36px" fill="#f08c00" text-anchor="middle" style="white-space: pre;" direction="ltr" dominant-baseline="alphabetic">101010011...</text></g></svg>