<svg version="1.1" xmlns="http://www.w3.org/2000/svg" viewBox="0 0 994.5714285714287 507" width="994.5714285714287" height="507">
  <!-- svg-source:excalidraw -->
  
  <defs>
    <style class="style-fonts">
      @font-face {
        font-family: "Virgil";
        src: url("https://excalidraw.com/Virgil.woff2");
      }
      @font-face {
        font-family: "Cascadia";
        src: url("https://excalidraw.com/Cascadia.woff2");
      }
      @font-face {
        font-family: "Assistant";
        src: url("https://excalidraw.com/Assistant-Regular.woff2");
      }
    </style>
    
  </defs>
  <rect x="0" y="0" width="994.5714285714287" height="507" fill="#ffffff"></rect><g stroke-linecap="round" transform="translate(10 10) rotate(0 407.28571428571433 243.5)"><path d="M32 0 C237 -2.09, 441.62 -2.65, 782.57 0 M32 0 C274.35 -1.4, 516.5 -1.62, 782.57 0 M782.57 0 C805.19 0.79, 812.69 11.58, 814.57 32 M782.57 0 C802.27 0.99, 813.1 10.93, 814.57 32 M814.57 32 C815.79 135.77, 817.11 240.08, 814.57 455 M814.57 32 C814.24 161.18, 814.16 290.1, 814.57 455 M814.57 455 C814.08 477.49, 803.52 485.69, 782.57 487 M814.57 455 C812.85 474.45, 802.19 485.34, 782.57 487 M782.57 487 C513.3 487.23, 242.95 486.33, 32 487 M782.57 487 C500.8 487.93, 220.02 487.96, 32 487 M32 487 C11.7 488.74, -0.83 474.83, 0 455 M32 487 C8.95 484.85, -0.81 476.53, 0 455 M0 455 C-1.17 330.97, -1.08 207.16, 0 32 M0 455 C0.35 288.97, 0.67 123.88, 0 32 M0 32 C1.79 10.38, 10.65 -1.19, 32 0 M0 32 C1.06 8.45, 8.83 0.63, 32 0" stroke="#be4bdb" stroke-width="1" fill="none"></path></g><g transform="translate(39.85714285714289 28.000000000000114) rotate(0 163.02499389648438 22.5)"><text x="0" y="31.536" font-family="Virgil, Segoe UI Emoji" font-size="36px" fill="#be4bdb" text-anchor="start" style="white-space: pre;" direction="ltr" dominant-baseline="alphabetic">WasmEdge Runtime</text></g><g stroke-linecap="round" transform="translate(63.12583235861189 125.12245572266374) rotate(0 126.35714285714289 77.64285714285711)"><path d="M32 0 C91.42 1.43, 150.78 1.44, 220.71 0 M32 0 C84.31 1.97, 134.4 2.03, 220.71 0 M220.71 0 C240.63 0.86, 251.44 10.9, 252.71 32 M220.71 0 C240.83 1.69, 253.42 9.76, 252.71 32 M252.71 32 C253.59 53.56, 255.44 73.9, 252.71 123.29 M252.71 32 C251.78 62.06, 251.83 90.31, 252.71 123.29 M252.71 123.29 C251.21 142.99, 240.55 153.84, 220.71 155.29 M252.71 123.29 C254.08 144.15, 242 156.63, 220.71 155.29 M220.71 155.29 C158.79 155.78, 94.51 152.05, 32 155.29 M220.71 155.29 C166.26 156.16, 110.36 154.55, 32 155.29 M32 155.29 C9.17 153.42, -0.71 144.79, 0 123.29 M32 155.29 C10.51 156.7, 1.5 145.06, 0 123.29 M0 123.29 C1.58 95.38, -1.32 67.97, 0 32 M0 123.29 C0.46 102.58, -0.44 81.58, 0 32 M0 32 C0.93 8.74, 9.07 0.55, 32 0 M0 32 C-0.95 12.41, 10.19 2.1, 32 0" stroke="#f08c00" stroke-width="1" fill="none"></path></g><g transform="translate(100.77463933928993 157.76531286552108) rotate(0 88.70833587646484 45)"><text x="88.70833587646484" y="31.536" font-family="Virgil, Segoe UI Emoji" font-size="36px" fill="#f08c00" text-anchor="middle" style="white-space: pre;" direction="ltr" dominant-baseline="alphabetic">Wasm </text><text x="88.70833587646484" y="76.536" font-family="Virgil, Segoe UI Emoji" font-size="36px" fill="#f08c00" text-anchor="middle" style="white-space: pre;" direction="ltr" dominant-baseline="alphabetic">101010011...</text></g><g stroke-linecap="round" transform="translate(61.16666666666583 312.7857142857147) rotate(0 129.39285714285722 74.42857142857144)"><path d="M32 0 C93.51 -0.59, 154.4 0.92, 226.79 0 M32 0 C97.42 -0.46, 163.62 -0.78, 226.79 0 M226.79 0 C247.06 1.47, 259.4 9.88, 258.79 32 M226.79 0 C246.65 1.95, 257.05 10.78, 258.79 32 M258.79 32 C260.07 55.9, 259.55 82.36, 258.79 116.86 M258.79 32 C257.87 61.53, 257.87 91.97, 258.79 116.86 M258.79 116.86 C259.97 137.79, 248.08 150.02, 226.79 148.86 M258.79 116.86 C259.62 137.78, 246.36 150.58, 226.79 148.86 M226.79 148.86 C149.33 148.46, 72.24 148.14, 32 148.86 M226.79 148.86 C150.69 146.46, 75.74 147.48, 32 148.86 M32 148.86 C10.53 150.08, 1.3 138.57, 0 116.86 M32 148.86 C10.7 149.49, 0.54 140.3, 0 116.86 M0 116.86 C-1.04 93.93, 0.99 70.92, 0 32 M0 116.86 C0.47 91.66, -0.79 68.67, 0 32 M0 32 C-0.83 12.18, 10.26 1.83, 32 0 M0 32 C-2.02 12.16, 11.34 0.06, 32 0" stroke="#1971c2" stroke-width="1" fill="none"></path></g><g transform="translate(101.85118793305821 342.21428571428623) rotate(0 88.70833587646484 45)"><text x="88.70833587646484" y="31.536" font-family="Virgil, Segoe UI Emoji" font-size="36px" fill="#1971c2" text-anchor="middle" style="white-space: pre;" direction="ltr" dominant-baseline="alphabetic">Wasm </text><text x="88.70833587646484" y="76.536" font-family="Virgil, Segoe UI Emoji" font-size="36px" fill="#1971c2" text-anchor="middle" style="white-space: pre;" direction="ltr" dominant-baseline="alphabetic">101010011...</text></g><g stroke-linecap="round" transform="translate(664 106) rotate(0 160.28571428571433 67.5)"><path d="M32 0 C87.37 -1.57, 145.4 0.84, 288.57 0 M32 0 C104.53 2, 178.16 1.72, 288.57 0 M288.57 0 C309.45 -1.23, 320.69 11.24, 320.57 32 M288.57 0 C309.36 1.57, 320.48 10.77, 320.57 32 M320.57 32 C320.64 55.67, 318.87 81.58, 320.57 103 M320.57 32 C320.22 59.13, 320.17 84.77, 320.57 103 M320.57 103 C318.66 126.13, 309.03 136.17, 288.57 135 M320.57 103 C319.8 125.08, 309.04 133.51, 288.57 135 M288.57 135 C208.37 136.51, 129.43 137.68, 32 135 M288.57 135 C220.53 136.93, 152.11 136.16, 32 135 M32 135 C9.88 134.51, 0.04 125.87, 0 103 M32 135 C9.11 137.06, 0.42 126.54, 0 103 M0 103 C-2.35 88.12, 0.77 71.37, 0 32 M0 103 C0.97 82.9, 0.04 62.84, 0 32 M0 32 C1.77 12.28, 12.28 1.87, 32 0 M0 32 C-1.95 9.97, 11.01 -1.64, 32 0" stroke="#2f9e44" stroke-width="1" fill="none"></path></g><g transform="translate(705.9607173374721 151) rotate(0 118.32499694824219 22.5)"><text x="118.32499694824219" y="31.536" font-family="Virgil, Segoe UI Emoji" font-size="36px" fill="#2f9e44" text-anchor="middle" style="white-space: pre;" direction="ltr" dominant-baseline="alphabetic">OpenCV Plugin</text></g><g stroke-linecap="round" transform="translate(663 302) rotate(0 160.28571428571433 67.5)"><path d="M32 0 C111.87 -0.92, 194.49 -0.74, 288.57 0 M32 0 C120.94 -1.86, 209.18 -2.08, 288.57 0 M288.57 0 C311.27 -1.66, 321.59 9.99, 320.57 32 M288.57 0 C308.29 0.31, 319.53 12.56, 320.57 32 M320.57 32 C318.57 59.58, 321.47 83.5, 320.57 103 M320.57 32 C320.95 49.31, 321.5 64.24, 320.57 103 M320.57 103 C320.83 124.19, 309.78 133.11, 288.57 135 M320.57 103 C319.12 122.52, 309.03 133.77, 288.57 135 M288.57 135 C205.89 133.03, 125.79 133.56, 32 135 M288.57 135 C207.26 134.44, 126.9 135.7, 32 135 M32 135 C10.88 133.6, -1.87 124.02, 0 103 M32 135 C8.62 133.85, -0.07 122.79, 0 103 M0 103 C2.06 89.32, -0.4 72.06, 0 32 M0 103 C-0.76 80.64, -0.42 57.44, 0 32 M0 32 C-1.15 11.15, 9.42 -0.84, 32 0 M0 32 C1.49 11.12, 9.02 0.8, 32 0" stroke="#2f9e44" stroke-width="1" fill="none"></path></g><g transform="translate(693.3690425327846 347) rotate(0 129.9166717529297 22.5)"><text x="129.9166717529297" y="31.536" font-family="Virgil, Segoe UI Emoji" font-size="36px" fill="#2f9e44" text-anchor="middle" style="white-space: pre;" direction="ltr" dominant-baseline="alphabetic">FFMPEG Plugin</text></g><g stroke-linecap="round"><g transform="translate(327.28571428571433 171.5) rotate(0 161 -1)"><path d="M0 0 C53.67 -0.33, 268.33 -1.67, 322 -2 M0 0 C53.67 -0.33, 268.33 -1.67, 322 -2" stroke="#f08c00" stroke-width="1" fill="none"></path></g><g transform="translate(327.28571428571433 171.5) rotate(0 161 -1)"><path d="M298.56 6.7 C307.45 3.4, 316.35 0.1, 322 -2 M298.56 6.7 C303.53 4.85, 308.5 3.01, 322 -2" stroke="#f08c00" stroke-width="1" fill="none"></path></g><g transform="translate(327.28571428571433 171.5) rotate(0 161 -1)"><path d="M298.46 -10.4 C307.39 -7.22, 316.32 -4.03, 322 -2 M298.46 -10.4 C303.44 -8.62, 308.43 -6.84, 322 -2" stroke="#f08c00" stroke-width="1" fill="none"></path></g></g><mask></mask><g stroke-linecap="round"><g transform="translate(331.28571428571433 191.5) rotate(0 160 72)"><path d="M0 0 C53.33 24, 266.67 120, 320 144 M0 0 C53.33 24, 266.67 120, 320 144" stroke="#f08c00" stroke-width="1" fill="none"></path></g><g transform="translate(331.28571428571433 191.5) rotate(0 160 72)"><path d="M295.07 142.16 C300.85 142.58, 306.64 143.01, 320 144 M295.07 142.16 C301.43 142.63, 307.79 143.1, 320 144" stroke="#f08c00" stroke-width="1" fill="none"></path></g><g transform="translate(331.28571428571433 191.5) rotate(0 160 72)"><path d="M302.09 126.56 C306.24 130.61, 310.4 134.66, 320 144 M302.09 126.56 C306.66 131.01, 311.23 135.46, 320 144" stroke="#f08c00" stroke-width="1" fill="none"></path></g></g><mask></mask></svg>